<?xml version="1.0" encoding="UTF-8" standalone="no"?>
<!-- Created with Inkscape (http://www.inkscape.org/) -->

<svg
   xmlns:dc="http://purl.org/dc/elements/1.1/"
   xmlns:cc="http://creativecommons.org/ns#"
   xmlns:rdf="http://www.w3.org/1999/02/22-rdf-syntax-ns#"
   xmlns:svg="http://www.w3.org/2000/svg"
   xmlns="http://www.w3.org/2000/svg"
   xmlns:xlink="http://www.w3.org/1999/xlink"
   xmlns:sodipodi="http://sodipodi.sourceforge.net/DTD/sodipodi-0.dtd"
   xmlns:inkscape="http://www.inkscape.org/namespaces/inkscape"
   version="1.1"
   id="svg887"
   width="130.66667"
   height="252"
   viewBox="0 0 130.66667 252"
   sodipodi:docname="main.svg"
   inkscape:version="0.92.5 (2060ec1f9f, 2020-04-08)">
  <metadata
     id="metadata893">
    <rdf:RDF>
      <cc:Work
         rdf:about="">
        <dc:format>image/svg+xml</dc:format>
        <dc:type
           rdf:resource="http://purl.org/dc/dcmitype/StillImage" />
        <dc:title />
      </cc:Work>
    </rdf:RDF>
  </metadata>
  <defs
     id="defs891">
    <linearGradient
       inkscape:collect="always"
       id="linearGradient5188">
      <stop
         style="stop-color:#b3b3b3;stop-opacity:1;"
         offset="0"
         id="stop5184" />
      <stop
         style="stop-color:#b3b3b3;stop-opacity:0;"
         offset="1"
         id="stop5186" />
    </linearGradient>
    <linearGradient
       inkscape:collect="always"
       id="linearGradient5136">
      <stop
         style="stop-color:#e6e6e6;stop-opacity:1;"
         offset="0"
         id="stop5132" />
      <stop
         style="stop-color:#e6e6e6;stop-opacity:0;"
         offset="1"
         id="stop5134" />
    </linearGradient>
    <inkscape:path-effect
       effect="spiro"
       id="path-effect4649"
       is_visible="true" />
    <linearGradient
       inkscape:collect="always"
       xlink:href="#linearGradient5136"
       id="linearGradient5140"
       x1="-37.134254"
       y1="48.7733"
       x2="-1.4094715"
       y2="48.7733"
       gradientUnits="userSpaceOnUse" />
    <linearGradient
       inkscape:collect="always"
       xlink:href="#linearGradient5136"
       id="linearGradient5150"
       gradientUnits="userSpaceOnUse"
       x1="-37.134254"
       y1="48.7733"
       x2="-1.4094715"
       y2="48.7733" />
    <linearGradient
       inkscape:collect="always"
       xlink:href="#linearGradient5188"
       id="linearGradient5190"
       x1="-29.646862"
       y1="35.75"
       x2="0.60313797"
       y2="35.75"
       gradientUnits="userSpaceOnUse"
       gradientTransform="translate(0.625,2.125)" />
  </defs>
  <sodipodi:namedview
     pagecolor="#ffffff"
     bordercolor="#666666"
     borderopacity="1"
     objecttolerance="10"
     gridtolerance="10"
     guidetolerance="10"
     inkscape:pageopacity="0"
     inkscape:pageshadow="2"
     inkscape:window-width="1366"
     inkscape:window-height="704"
     id="namedview889"
     showgrid="false"
     inkscape:zoom="2"
     inkscape:cx="-56.592204"
     inkscape:cy="60.63971"
     inkscape:window-x="0"
     inkscape:window-y="27"
     inkscape:window-maximized="1"
     inkscape:current-layer="svg887"
     inkscape:snap-global="false" />
  <g
     id="g5844"
     transform="matrix(0.58450645,0,0,0.62267491,147.23452,184.32354)">
    <ellipse
       cx="-139.77626"
       cy="19.793884"
       rx="63.474503"
       ry="65.084358"
       id="path4621"
       style="opacity:1;fill:#e21d1d;fill-opacity:1;stroke-width:2.19623137" />
    <g
       transform="matrix(1.8398406,0,0,1.8398406,-546.64833,-325.83581)"
       id="g5329">
      <rect
         style="opacity:1;fill:#333333;fill-opacity:1"
         id="rect4623"
         width="41.25"
         height="114"
         x="200.52028"
         y="65.064972"
         ry="0" />
      <rect
         style="opacity:1;fill:#1a1a1a;fill-opacity:1"
         id="rect4625"
         width="36"
         height="100.75"
         x="203.14528"
         y="68.564972" />
    </g>
    <rect
       ry="15.638645"
       y="-5.0502248"
       x="-196.20201"
       height="115.34477"
       width="112.85148"
       id="rect897"
       style="opacity:1;fill:#ff2a2a;fill-opacity:1;stroke:none;stroke-width:0.18398406;stroke-miterlimit:4;stroke-dasharray:none;stroke-opacity:1" />
    <rect
       style="opacity:1;fill:#1a1a1a;fill-opacity:1;stroke-width:0.78432751"
       id="rect4633"
       width="112.85148"
       height="20.374414"
       x="-196.20201"
       y="89.920151"
       ry="2.7623987" />
    <g
       transform="matrix(1.8398406,0,0,1.8398406,-546.64834,-322.5834)"
       id="g5347">
      <g
         id="g4779"
         transform="translate(-8.3421349e-6)">
        <rect
           style="opacity:1;fill:#000000;fill-opacity:1;stroke:none;stroke-width:0.03363737;stroke-miterlimit:4;stroke-dasharray:none;stroke-opacity:1"
           id="rect4767"
           width="11.313708"
           height="45.961945"
           x="215.48843"
           y="14.557496"
           ry="8.0433397"
           rx="5.6568542" />
        <rect
           rx="8.1317282"
           ry="8.0433397"
           y="26.224758"
           x="213.01357"
           height="45.961945"
           width="16.263456"
           id="rect4765"
           style="opacity:1;fill:#dd2222;fill-opacity:1;stroke:none;stroke-width:0.04032978;stroke-miterlimit:4;stroke-dasharray:none;stroke-opacity:1" />
      </g>
      <g
         id="g4746"
         transform="translate(-0.0699184,5.2765917)">
        <g
           transform="rotate(10.600669,251.80983,1032.6971)"
           id="g4726">
          <rect
             style="opacity:1;fill:#4d4d4d;fill-opacity:1;stroke:#000000;stroke-width:0.03409182;stroke-miterlimit:4;stroke-dasharray:none;stroke-opacity:1"
             id="rect4712"
             width="15.003703"
             height="3.2537034"
             x="68.998154"
             y="77.873146"
             ry="0" />
          <rect
             style="opacity:1;fill:#000000;fill-opacity:1;stroke:#000000;stroke-width:0.04014933;stroke-miterlimit:4;stroke-dasharray:none;stroke-opacity:1"
             id="rect4714"
             width="26.247646"
             height="5.4976459"
             x="77.751175"
             y="76.751175"
             ry="2.49893" />
        </g>
        <g
           id="g4738"
           transform="matrix(-0.9829332,0.18396283,0.18396283,0.9829332,248.15494,-28.698816)">
          <rect
             ry="0"
             y="77.873146"
             x="68.998154"
             height="3.2537034"
             width="15.003703"
             id="rect4734"
             style="opacity:1;fill:#4d4d4d;fill-opacity:1;stroke:#000000;stroke-width:0.03409182;stroke-miterlimit:4;stroke-dasharray:none;stroke-opacity:1" />
          <rect
             ry="2.49893"
             y="76.751175"
             x="77.751175"
             height="5.4976459"
             width="26.247646"
             id="rect4736"
             style="opacity:1;fill:#000000;fill-opacity:1;stroke:#000000;stroke-width:0.04014933;stroke-miterlimit:4;stroke-dasharray:none;stroke-opacity:1" />
        </g>
      </g>
      <path
         style="opacity:1;fill:#ee1d1d;fill-opacity:1;stroke:#000000;stroke-width:0.03779528;stroke-miterlimit:4;stroke-dasharray:none;stroke-opacity:1"
         d="m 221.07031,53.673357 c -14.04011,0.01476 -26.72671,7.469829 -32.75598,19.010629 -0.52043,1.014423 0.33933,1.932241 1.35525,1.746726 8.82881,-2.263513 19.71223,-3.505119 30.95563,-3.512238 11.68484,0.0069 22.96549,1.346996 31.95486,3.773533 1.33124,0.259472 1.7977,-0.972848 1.43219,-1.695966 C 248.05122,61.279372 235.2559,53.679296 221.07031,53.673357 Z"
         id="path4635"
         inkscape:connector-curvature="0"
         sodipodi:nodetypes="ccccccc" />
      <g
         id="g4783">
        <path
           sodipodi:nodetypes="sssss"
           inkscape:connector-curvature="0"
           id="path4748"
           d="m 234.04487,54.689487 c 0,6.440828 -5.77534,11.662151 -12.89958,11.662151 -7.12425,0 -12.89959,-5.221322 -12.89959,-11.662151 0,-6.440827 6.33784,-10.412151 13.46209,-10.412152 7.12424,0 12.33708,3.971323 12.33708,10.412152 z"
           style="opacity:1;fill:#ef6910;fill-opacity:1;stroke:none;stroke-width:0.04801666;stroke-miterlimit:4;stroke-dasharray:none;stroke-opacity:1" />
        <path
           sodipodi:nodetypes="sssss"
           inkscape:connector-curvature="0"
           id="path4752"
           d="m 231.39097,52.564487 c 0,3.669618 -4.83715,3.519456 -10.49568,3.519456 -5.65854,0 -9.99568,0.150162 -9.99568,-3.519456 0,-3.669618 4.58714,-6.644432 10.24568,-6.644432 5.65853,0 10.24568,2.974814 10.24568,6.644432 z"
           style="opacity:1;fill:#e6e6e6;fill-opacity:1;stroke:none;stroke-width:0.06134447;stroke-miterlimit:4;stroke-dasharray:none;stroke-opacity:1" />
      </g>
    </g>
    <g
       transform="translate(-240,17)"
       id="g5773">
      <g
         id="g5276"
         style="fill:#092045;fill-opacity:1"
         transform="matrix(1.8398406,0,0,1.8398406,-42.811779,-347.69391)">
        <path
           sodipodi:nodetypes="ccccccccccccc"
           inkscape:connector-curvature="0"
           id="rect5257"
           d="m 77.587204,125.30136 33.596646,0.0312 0.13944,1.62708 -0.0892,1.80165 -0.36599,1.61689 -0.39014,1.25096 -8.72252,29.7788 -3.091865,4.76248 -3.531775,3.3782 -3.724283,2.27687 -5.593002,2.54177 -8.227351,0.078 z"
           style="opacity:1;fill:#092045;fill-opacity:1;stroke:none;stroke-width:0.08362259;stroke-miterlimit:4;stroke-dasharray:none;stroke-opacity:1" />
        <path
           style="opacity:1;fill:#092045;fill-opacity:1;stroke:none;stroke-width:0.08362259;stroke-miterlimit:4;stroke-dasharray:none;stroke-opacity:1"
           d="m 77.899651,125.30136 -33.596646,0.0312 -0.139441,1.62708 0.08917,1.80165 0.365998,1.61689 0.390135,1.25096 8.722526,29.7788 3.09186,4.76248 3.531775,3.3782 3.724284,2.27687 5.593001,2.54177 8.227351,0.078 z"
           id="path5260"
           inkscape:connector-curvature="0"
           sodipodi:nodetypes="ccccccccccccc" />
      </g>
      <g
         id="g5730"
         transform="translate(8,101)">
        <g
           id="g4903"
           transform="matrix(1.8398406,0,0,1.8398406,-11.904025,-430.0998)">
          <g
             transform="rotate(-2.0596771,38.902238,129.36944)"
             id="g4839">
            <g
               style="fill:#ff9955"
               id="g4843">
              <rect
                 transform="matrix(0.99698615,-0.07757972,0.03850651,0.99925835,0,0)"
                 y="80.123421"
                 x="97.478889"
                 height="3.6808074"
                 width="8.1129799"
                 id="rect4828"
                 style="opacity:1;fill:#ff9955;fill-opacity:1;stroke:none;stroke-width:0.10929285;stroke-miterlimit:4;stroke-dasharray:none;stroke-opacity:1" />
              <path
                 sodipodi:nodetypes="sssccssssssss"
                 inkscape:connector-curvature="0"
                 id="path4834"
                 d="m 109.51316,67.179964 c 0,1.589761 -0.55939,3.445745 -1.13157,4.601821 -0.8158,1.648323 -2.00155,2.292471 -4.56948,2.29247 -1.63162,-10e-7 -2.83145,-1.559265 -4.252688,-1.912451 -1.651749,-0.679344 -3.517483,-0.71065 -5.048733,-1.481963 -0.316432,-0.441635 -0.298082,-2.212279 -0.01724,-2.682281 0,0 1.288887,0.144633 1.939156,-0.468484 0.592913,-0.559038 0.379334,-0.735834 0.754929,-1.697518 0.169871,-0.434944 0.174949,-1.28906 0.58152,-2.044805 0.268769,-0.499596 0.535459,-1.727734 0.728941,-1.855737 1.426832,-0.943953 3.321105,-0.142741 6.109615,0.387589 2.49006,0.473571 3.2832,0.809933 4.28132,1.871978 0.72231,0.768571 0.62423,1.370287 0.62423,2.989381 z"
                 style="opacity:1;fill:#ff9955;fill-opacity:1;stroke:none;stroke-width:0.1;stroke-miterlimit:4;stroke-dasharray:none;stroke-opacity:1" />
            </g>
          </g>
          <path
             style="opacity:1;fill:#efef10;fill-opacity:1;stroke:none;stroke-width:0.1;stroke-miterlimit:4;stroke-dasharray:none;stroke-opacity:1"
             d="m 108.21167,73.721509 -10.097657,0.867188 c -0.13346,1.965222 -0.0953,4.129556 -0.20313,5.177734 -0.234715,2.28199 -0.1751,5.501448 -1.402339,9.123047 -0.493254,1.455595 -1.267814,3.399304 -2.173829,5.058593 -0.689794,1.263301 -1.454909,2.230742 -2.232421,3.460941 -1.640738,2.596008 -3.977449,4.068258 -5.664063,5.738278 -3.721829,3.68522 -8.80328,6.06094 -12.736328,6.76758 v 16.04883 c 11.628323,-5.00623 22.464336,-15.8431 28.816407,-28.146488 2.07596,-4.020961 3.54946,-7.918289 4.53906,-12.115234 0.77408,-3.282903 1.30053,-6.870863 1.26953,-10.042969 -0.007,-0.743988 -0.0518,-1.370951 -0.11523,-1.9375 z"
             id="path4804"
             inkscape:connector-curvature="0" />
          <rect
             style="opacity:1;fill:#ff4022;fill-opacity:1;stroke:none;stroke-width:0.04266649;stroke-miterlimit:4;stroke-dasharray:none;stroke-opacity:1"
             id="rect4818"
             width="11.133686"
             height="5.2976089"
             x="91.817917"
             y="78.867134"
             rx="0"
             ry="0"
             transform="matrix(0.99810953,-0.06146032,0.06817258,0.99767354,0,0)" />
        </g>
        <g
           transform="matrix(1.8386519,-0.06612462,0.06612462,1.8386519,-20.412288,-427.37363)"
           id="g4911">
          <g
             style="fill:#ff9955"
             id="g4909">
            <rect
               transform="matrix(0.99698615,-0.07757972,0.03850651,0.99925835,0,0)"
               y="80.123421"
               x="97.478889"
               height="3.6808074"
               width="8.1129799"
               id="rect4905"
               style="opacity:1;fill:#ff9955;fill-opacity:1;stroke:none;stroke-width:0.10929285;stroke-miterlimit:4;stroke-dasharray:none;stroke-opacity:1" />
            <path
               sodipodi:nodetypes="sssccssssssss"
               inkscape:connector-curvature="0"
               id="path4907"
               d="m 109.51316,67.179964 c 0,1.589761 -0.55939,3.445745 -1.13157,4.601821 -0.8158,1.648323 -2.00155,2.292471 -4.56948,2.29247 -1.63162,-10e-7 -2.83145,-1.559265 -4.252688,-1.912451 -1.651749,-0.679344 -3.517483,-0.71065 -5.048733,-1.481963 -0.316432,-0.441635 -0.298082,-2.212279 -0.01724,-2.682281 0,0 1.288887,0.144633 1.939156,-0.468484 0.592913,-0.559038 0.379334,-0.735834 0.754929,-1.697518 0.169871,-0.434944 0.174949,-1.28906 0.58152,-2.044805 0.268769,-0.499596 0.535459,-1.727734 0.728941,-1.855737 1.426832,-0.943953 3.321105,-0.142741 6.109615,0.387589 2.49006,0.473571 3.2832,0.809933 4.28132,1.871978 0.72231,0.768571 0.62423,1.370287 0.62423,2.989381 z"
               style="opacity:1;fill:#ff9955;fill-opacity:1;stroke:none;stroke-width:0.1;stroke-miterlimit:4;stroke-dasharray:none;stroke-opacity:1" />
          </g>
        </g>
        <path
           style="opacity:1;fill:#ffcc00;fill-opacity:1;stroke:none;stroke-width:0.18398406;stroke-miterlimit:4;stroke-dasharray:none;stroke-opacity:1"
           d="m 187.1882,-294.46397 -18.57808,1.59548 c -0.24555,3.6157 -0.17534,7.59773 -0.37373,9.52621 -0.43184,4.1985 -0.32215,10.12179 -2.58008,16.78495 -0.90751,2.67806 -2.33257,6.25418 -3.9995,9.30701 -1.26911,2.32427 -2.6768,4.10421 -4.1073,6.36758 -3.01869,4.77624 -7.31787,7.48494 -10.42097,10.55751 -6.84757,6.78022 -16.19663,11.15117 -23.43281,12.45127 v 29.52729 c 21.39426,-9.21067 41.3308,-29.14878 53.01759,-51.78505 3.81944,-7.39793 6.53044,-14.56839 8.35115,-22.2901 1.42418,-6.04002 2.39277,-12.64129 2.33573,-18.47746 -0.0129,-1.36882 -0.0953,-2.52233 -0.212,-3.56469 z"
           id="path4913"
           inkscape:connector-curvature="0" />
        <rect
           style="opacity:1;fill:#ff4022;fill-opacity:1;stroke:none;stroke-width:0.07849954;stroke-miterlimit:4;stroke-dasharray:none;stroke-opacity:1"
           id="rect4915"
           width="20.484207"
           height="9.7467556"
           x="186.37541"
           y="-284.92511"
           rx="0"
           ry="0"
           transform="matrix(0.99810953,-0.06146032,0.06817258,0.99767354,0,0)" />
        <g
           transform="matrix(-1.8398406,0,0,1.8398406,196.35149,-430.0998)"
           id="g4931">
          <g
             id="g4925"
             transform="rotate(-2.0596771,38.902238,129.36944)">
            <g
               id="g4923"
               style="fill:#ff9955">
              <rect
                 style="opacity:1;fill:#ff9955;fill-opacity:1;stroke:none;stroke-width:0.10929285;stroke-miterlimit:4;stroke-dasharray:none;stroke-opacity:1"
                 id="rect4919"
                 width="8.1129799"
                 height="3.6808074"
                 x="97.478889"
                 y="80.123421"
                 transform="matrix(0.99698615,-0.07757972,0.03850651,0.99925835,0,0)" />
              <path
                 style="opacity:1;fill:#ff9955;fill-opacity:1;stroke:none;stroke-width:0.1;stroke-miterlimit:4;stroke-dasharray:none;stroke-opacity:1"
                 d="m 109.51316,67.179964 c 0,1.589761 -0.55939,3.445745 -1.13157,4.601821 -0.8158,1.648323 -2.00155,2.292471 -4.56948,2.29247 -1.63162,-10e-7 -2.83145,-1.559265 -4.252688,-1.912451 -1.651749,-0.679344 -3.517483,-0.71065 -5.048733,-1.481963 -0.316432,-0.441635 -0.298082,-2.212279 -0.01724,-2.682281 0,0 1.288887,0.144633 1.939156,-0.468484 0.592913,-0.559038 0.379334,-0.735834 0.754929,-1.697518 0.169871,-0.434944 0.174949,-1.28906 0.58152,-2.044805 0.268769,-0.499596 0.535459,-1.727734 0.728941,-1.855737 1.426832,-0.943953 3.321105,-0.142741 6.109615,0.387589 2.49006,0.473571 3.2832,0.809933 4.28132,1.871978 0.72231,0.768571 0.62423,1.370287 0.62423,2.989381 z"
                 id="path4921"
                 inkscape:connector-curvature="0"
                 sodipodi:nodetypes="sssccssssssss" />
            </g>
          </g>
          <path
             inkscape:connector-curvature="0"
             id="path4927"
             d="m 108.21167,73.721509 -10.097657,0.867188 c -0.13346,1.965222 -0.0953,4.129556 -0.20313,5.177734 -0.234715,2.28199 -0.1751,5.501448 -1.402339,9.123047 -0.493254,1.455595 -1.267814,3.399304 -2.173829,5.058593 -0.689794,1.263301 -1.454909,2.230742 -2.232421,3.460941 -1.640738,2.596008 -3.977449,4.068258 -5.664063,5.738278 -3.721829,3.68522 -8.80328,6.06094 -12.736328,6.76758 v 16.04883 c 11.628323,-5.00623 22.464336,-15.8431 28.816407,-28.146488 2.07596,-4.020961 3.54946,-7.918289 4.53906,-12.115234 0.77408,-3.282903 1.30053,-6.870863 1.26953,-10.042969 -0.007,-0.743988 -0.0518,-1.370951 -0.11523,-1.9375 z"
             style="opacity:1;fill:#efef10;fill-opacity:1;stroke:none;stroke-width:0.1;stroke-miterlimit:4;stroke-dasharray:none;stroke-opacity:1" />
          <rect
             transform="matrix(0.99810953,-0.06146032,0.06817258,0.99767354,0,0)"
             ry="0"
             rx="0"
             y="78.867134"
             x="91.817917"
             height="5.2976089"
             width="11.133686"
             id="rect4929"
             style="opacity:1;fill:#ff4022;fill-opacity:1;stroke:none;stroke-width:0.04266649;stroke-miterlimit:4;stroke-dasharray:none;stroke-opacity:1" />
        </g>
        <g
           id="g4939"
           transform="matrix(-1.8386519,-0.06612462,-0.06612462,1.8386519,204.85975,-427.37363)">
          <g
             id="g4937"
             style="fill:#ff9955">
            <rect
               style="opacity:1;fill:#ff9955;fill-opacity:1;stroke:none;stroke-width:0.10929285;stroke-miterlimit:4;stroke-dasharray:none;stroke-opacity:1"
               id="rect4933"
               width="8.1129799"
               height="3.6808074"
               x="97.478889"
               y="80.123421"
               transform="matrix(0.99698615,-0.07757972,0.03850651,0.99925835,0,0)" />
            <path
               style="opacity:1;fill:#ff9955;fill-opacity:1;stroke:none;stroke-width:0.1;stroke-miterlimit:4;stroke-dasharray:none;stroke-opacity:1"
               d="m 109.51316,67.179964 c 0,1.589761 -0.55939,3.445745 -1.13157,4.601821 -0.8158,1.648323 -2.00155,2.292471 -4.56948,2.29247 -1.63162,-10e-7 -2.83145,-1.559265 -4.252688,-1.912451 -1.651749,-0.679344 -3.517483,-0.71065 -5.048733,-1.481963 -0.316432,-0.441635 -0.298082,-2.212279 -0.01724,-2.682281 0,0 1.288887,0.144633 1.939156,-0.468484 0.592913,-0.559038 0.379334,-0.735834 0.754929,-1.697518 0.169871,-0.434944 0.174949,-1.28906 0.58152,-2.044805 0.268769,-0.499596 0.535459,-1.727734 0.728941,-1.855737 1.426832,-0.943953 3.321105,-0.142741 6.109615,0.387589 2.49006,0.473571 3.2832,0.809933 4.28132,1.871978 0.72231,0.768571 0.62423,1.370287 0.62423,2.989381 z"
               id="path4935"
               inkscape:connector-curvature="0"
               sodipodi:nodetypes="sssccssssssss" />
          </g>
        </g>
        <path
           inkscape:connector-curvature="0"
           id="path4941"
           d="m -2.7407339,-294.46397 18.5780789,1.59548 c 0.245546,3.6157 0.175337,7.59773 0.373727,9.52621 0.431838,4.1985 0.322156,10.12179 2.580081,16.78495 0.907508,2.67806 2.332575,6.25418 3.999498,9.30701 1.269111,2.32427 2.676801,4.10421 4.107299,6.36758 3.018697,4.77624 7.317872,7.48494 10.420973,10.55751 6.847572,6.78022 16.196632,11.15117 23.432814,12.45127 v 29.52729 c -21.394261,-9.21067 -41.330798,-29.14878 -53.017596,-51.78505 -3.8194355,-7.39793 -6.5304406,-14.56839 -8.35114686,-22.2901 -1.42418384,-6.04002 -2.39276794,-12.64129 -2.33573284,-18.47746 0.012879,-1.36882 0.095304,-2.52233 0.2120048,-3.56469 z"
           style="opacity:1;fill:#ffcc00;fill-opacity:1;stroke:none;stroke-width:0.18398406;stroke-miterlimit:4;stroke-dasharray:none;stroke-opacity:1" />
        <rect
           transform="matrix(-0.99810953,-0.06146032,-0.06817258,0.99767354,0,0)"
           ry="0"
           rx="0"
           y="-296.26157"
           x="2.352886"
           height="9.7467556"
           width="20.484207"
           id="rect4943"
           style="opacity:1;fill:#ff4022;fill-opacity:1;stroke:none;stroke-width:0.07849954;stroke-miterlimit:4;stroke-dasharray:none;stroke-opacity:1" />
      </g>
      <g
         id="g5008"
         style="fill:#d11010;fill-opacity:1"
         transform="matrix(1.8398406,0,0,1.8398406,-9.138542,-332.75636)">
        <path
           sodipodi:nodetypes="sssssssss"
           inkscape:connector-curvature="0"
           id="rect4801"
           d="m 46.518982,111.54639 h 26.959794 c 4.505557,0 9.365002,3.92286 8.764725,8.55545 l -4.423647,34.1391 c -0.600277,4.63259 -11.210612,7.05545 -15.716169,7.05545 h -2.440154 c -4.505557,0 -17.774375,-2.42233 -18.370357,-7.05545 l -4.423647,-34.3891 c -0.595982,-4.63312 5.143897,-8.30545 9.649455,-8.30545 z"
           style="opacity:1;fill:#d11010;fill-opacity:1;stroke:none;stroke-width:0.10294574;stroke-miterlimit:4;stroke-dasharray:none;stroke-opacity:1" />
        <path
           sodipodi:nodetypes="ccccccccc"
           inkscape:connector-curvature="0"
           id="rect4986"
           d="m 34.642851,108.1345 3.071086,1.79895 4.135956,1.96886 13.791268,6.66681 -6.580232,13.01521 -12.125722,-5.25042 -3.654547,-2.67767 -4.776105,-3.56717 z"
           style="opacity:1;fill:#d11010;fill-opacity:1;stroke:none;stroke-width:0.1;stroke-miterlimit:4;stroke-dasharray:none;stroke-opacity:1" />
        <path
           style="opacity:1;fill:#d11010;fill-opacity:1;stroke:none;stroke-width:0.1;stroke-miterlimit:4;stroke-dasharray:none;stroke-opacity:1"
           d="m 84.239487,107.42739 -3.071086,1.79895 -4.135956,1.96886 -13.791268,6.66681 6.580232,13.01521 12.125722,-5.25042 3.654547,-2.67767 4.776105,-3.56717 z"
           id="path4989"
           inkscape:connector-curvature="0"
           sodipodi:nodetypes="ccccccccc" />
      </g>
      <g
         id="g5210"
         transform="matrix(1.8398406,0,0,1.8398406,152.69941,-246.54536)">
        <g
           transform="translate(-14.625,9.75)"
           id="g5194">
          <ellipse
             style="opacity:1;fill:#333333;fill-opacity:1;stroke:none;stroke-width:0.1;stroke-miterlimit:4;stroke-dasharray:none;stroke-opacity:1"
             id="path5146"
             cx="-13.896862"
             cy="37.875"
             rx="15.125"
             ry="14.75" />
          <ellipse
             ry="14.75"
             rx="15.125"
             cy="37.875"
             cx="-13.896862"
             id="ellipse5160"
             style="opacity:1;fill:url(#linearGradient5190);fill-opacity:1;stroke:none;stroke-width:0.1;stroke-miterlimit:4;stroke-dasharray:none;stroke-opacity:1" />
        </g>
        <g
           transform="translate(-9.25,9.5)"
           id="g5144">
          <ellipse
             ry="18.925629"
             rx="17.862391"
             cy="48.7733"
             cx="-19.271862"
             id="ellipse5122"
             style="opacity:1;fill:#939393;fill-opacity:1;stroke:none;stroke-width:0.1202916;stroke-miterlimit:4;stroke-dasharray:none;stroke-opacity:1" />
          <ellipse
             style="opacity:1;fill:url(#linearGradient5150);fill-opacity:1;stroke:none;stroke-width:0.1202916;stroke-miterlimit:4;stroke-dasharray:none;stroke-opacity:1"
             id="path5047"
             cx="-19.271862"
             cy="48.7733"
             rx="17.862391"
             ry="18.925629" />
        </g>
      </g>
    </g>
  </g>
</svg>
